<svg width="705" height="146" viewBox="0 0 705 146" fill="none" xmlns="http://www.w3.org/2000/svg">
<g clip-path="url(#clip0_337_2705)">
<path d="M32.029 145.053V23.7995H0V0H94.4654V23.7995H62.2466V145.053H32.029Z" fill="black"/>
<path d="M111.465 145.053V0H187.437V22.4185H141.113V57.036H183.723V79.3567H141.113V121.645H189.157V145.047H111.471L111.465 145.053Z" fill="black"/>
<path d="M247.92 0C263.613 0 274.579 2.16359 280.806 6.49078C288.431 11.8652 292.243 22.125 292.243 37.2702C292.243 47.1675 291.065 54.7113 288.719 59.8901C285.539 66.7722 279.886 71.2663 271.75 73.3608C281.094 75.3288 287.224 79.1611 290.145 84.8693C292.37 89.1332 293.48 96.769 293.48 107.783C293.48 108.571 293.434 109.785 293.336 111.419C293.238 113.059 293.192 114.273 293.192 115.056C293.192 127.514 294.434 137.509 296.907 145.047H266.31C264.976 140.392 264.245 130.823 264.119 116.333C264.056 112.006 263.992 108.203 263.929 104.929C263.739 98.3054 262.653 93.5237 260.675 90.5717C258.185 87.0329 253.918 85.2606 247.857 85.2606H235.517V145.053H206.156V0H247.909H247.92ZM235.529 62.6407H242.797C250.514 62.6407 255.965 61.133 259.151 58.1178C262.336 55.1026 263.935 49.6936 263.935 41.8909C263.935 34.0881 262.342 29.0071 259.151 26.2566C256.345 23.8341 251.083 22.6199 243.372 22.6199H235.529V62.6464V62.6407Z" fill="black"/>
<path d="M355.672 0C371.365 0 382.331 2.16359 388.558 6.49078C396.183 11.8652 399.995 22.125 399.995 37.2702C399.995 47.1675 398.817 54.7113 396.471 59.8901C393.291 66.7722 387.638 71.2663 379.501 73.3608C388.846 75.3288 394.975 79.1611 397.897 84.8693C400.122 89.1332 401.232 96.769 401.232 107.783C401.232 108.571 401.186 109.785 401.088 111.419C400.99 113.059 400.944 114.273 400.944 115.056C400.944 127.514 402.186 137.509 404.659 145.047H374.062C372.728 140.392 371.997 130.823 371.871 116.333C371.808 112.006 371.744 108.203 371.681 104.929C371.491 98.3054 370.405 93.5237 368.426 90.5717C365.937 87.0329 361.67 85.2606 355.609 85.2606H343.269V145.053H313.908V0H355.661H355.672ZM343.281 62.6407H350.549C358.266 62.6407 363.717 61.133 366.903 58.1178C370.088 55.1026 371.687 49.6936 371.687 41.8909C371.687 34.0881 370.094 29.0071 366.903 26.2566C364.097 23.8341 358.835 22.6199 351.124 22.6199H343.281V62.6464V62.6407Z" fill="black"/>
<path d="M506.975 145.053L499.442 112.8H458.644L451.209 145.053H421.658L461.318 0H498.781L537.865 145.053H506.981H506.975ZM464.078 90.4739H494.106L479.523 27.6376L464.084 90.4739H464.078Z" fill="black"/>
<path d="M554.865 145.053V0H583.559V145.053H554.865Z" fill="black"/>
<path d="M600.559 145.053V0H640.023L666.905 75.3288C673.449 93.6848 678.342 110.47 681.586 125.678C680.884 119.452 680.344 112.864 679.964 105.913C679.838 103.749 679.648 96.3087 679.389 83.5918L677.675 0.00575424H704.845V145.059H666.336L637.832 65.6962C633.766 54.4236 629.028 38.0988 623.629 16.7218C624.963 34.1629 625.727 48.1285 625.917 58.6127L627.631 145.053H600.559Z" fill="black"/>
</g>
<defs>
<clipPath id="clip0_337_2705">
<rect width="704.846" height="145.059" fill="white"/>
</clipPath>
</defs>
</svg>
